<?xml version="1.0" encoding="UTF-8" standalone="no"?>
<!DOCTYPE svg PUBLIC "-//W3C//DTD SVG 1.1//EN"
 "http://www.w3.org/Graphics/SVG/1.1/DTD/svg11.dtd">
<!-- Generated by graphviz version 2.43.0 (0)
 -->
<!-- Title: FST Pages: 1 -->
<svg width="52pt" height="552pt"
 viewBox="0.00 0.00 52.00 552.00" xmlns="http://www.w3.org/2000/svg" xmlns:xlink="http://www.w3.org/1999/xlink">
<g id="graph0" class="graph" transform="scale(1 1) rotate(-90) translate(-548 48)">
<title>FST</title>
<polygon fill="white" stroke="transparent" points="-4,4 -4,-48 548,-48 548,4 -4,4"/>
<!-- 0 -->
<g id="node1" class="node">
<title>0</title>
<ellipse fill="none" stroke="black" stroke-width="2" cx="18" cy="-22" rx="18" ry="18"/>
<text text-anchor="middle" x="18" y="-18.3" font-family="Times,serif" font-size="14.00">0</text>
</g>
<!-- 1 -->
<g id="node2" class="node">
<title>1</title>
<ellipse fill="none" stroke="black" cx="143" cy="-22" rx="18" ry="18"/>
<text text-anchor="middle" x="143" y="-18.3" font-family="Times,serif" font-size="14.00">1</text>
</g>
<!-- 0&#45;&gt;1 -->
<g id="edge1" class="edge">
<title>0&#45;&gt;1</title>
<path fill="none" stroke="black" d="M36.1,-22C56.37,-22 90.4,-22 114.41,-22"/>
<polygon fill="black" stroke="black" points="114.65,-25.5 124.65,-22 114.65,-18.5 114.65,-25.5"/>
<text text-anchor="middle" x="80.5" y="-25.8" font-family="Times,serif" font-size="14.00">116:116</text>
</g>
<!-- 2 -->
<g id="node3" class="node">
<title>2</title>
<ellipse fill="none" stroke="black" cx="268" cy="-22" rx="18" ry="18"/>
<text text-anchor="middle" x="268" y="-18.3" font-family="Times,serif" font-size="14.00">2</text>
</g>
<!-- 1&#45;&gt;2 -->
<g id="edge2" class="edge">
<title>1&#45;&gt;2</title>
<path fill="none" stroke="black" d="M161.1,-22C181.37,-22 215.4,-22 239.41,-22"/>
<polygon fill="black" stroke="black" points="239.65,-25.5 249.65,-22 239.65,-18.5 239.65,-25.5"/>
<text text-anchor="middle" x="205.5" y="-25.8" font-family="Times,serif" font-size="14.00">101:101</text>
</g>
<!-- 3 -->
<g id="node4" class="node">
<title>3</title>
<ellipse fill="none" stroke="black" cx="393" cy="-22" rx="18" ry="18"/>
<text text-anchor="middle" x="393" y="-18.3" font-family="Times,serif" font-size="14.00">3</text>
</g>
<!-- 2&#45;&gt;3 -->
<g id="edge3" class="edge">
<title>2&#45;&gt;3</title>
<path fill="none" stroke="black" d="M286.1,-22C306.37,-22 340.4,-22 364.41,-22"/>
<polygon fill="black" stroke="black" points="364.65,-25.5 374.65,-22 364.65,-18.5 364.65,-25.5"/>
<text text-anchor="middle" x="330.5" y="-25.8" font-family="Times,serif" font-size="14.00">115:115</text>
</g>
<!-- 4 -->
<g id="node5" class="node">
<title>4</title>
<ellipse fill="none" stroke="black" cx="522" cy="-22" rx="18" ry="18"/>
<ellipse fill="none" stroke="black" cx="522" cy="-22" rx="22" ry="22"/>
<text text-anchor="middle" x="522" y="-18.3" font-family="Times,serif" font-size="14.00">4</text>
</g>
<!-- 3&#45;&gt;4 -->
<g id="edge4" class="edge">
<title>3&#45;&gt;4</title>
<path fill="none" stroke="black" d="M411.13,-22C431.27,-22 465.1,-22 489.91,-22"/>
<polygon fill="black" stroke="black" points="489.93,-25.5 499.93,-22 489.93,-18.5 489.93,-25.5"/>
<text text-anchor="middle" x="455.5" y="-25.8" font-family="Times,serif" font-size="14.00">116:116</text>
</g>
</g>
</svg>
